<svg xmlns="http://www.w3.org/2000/svg" viewBox="-13 -13 709.8 224.1" role="img" aria-label="SupaSnake">
<title>SupaSnake</title>
<defs>
<linearGradient id="ss-letter" x1="0" y1="0" x2="0" y2="1"><stop offset="0" stop-color="#FDCE07"/><stop offset="0.3" stop-color="#FDC805"/><stop offset="0.58" stop-color="#FDA402"/><stop offset="0.84" stop-color="#F88102"/><stop offset="1" stop-color="#EF6602"/></linearGradient>
<clipPath id="ss-ink"><path d="M65.8 24.3 L71.3 24.8 L87 36.8 L83.5 44.3 L84.5 48 L77 64.5 L67.5 70.3 L63 67.5 L62 64.5 L57.3 64.3 L44 72.3 L38 79 L37.3 82.5 L40.3 86.5 L69 97 L76.8 101.8 L84.8 113.5 L86.5 127.3 L83.3 137.8 L71.3 154.3 L52.8 172.3 L28.3 188.3 L24.5 183.8 L20 185.3 L1.5 170.3 L22 139 L30 146 L35 145.8 L51 133.8 L54.3 128 L54.3 123.8 L51.8 120.3 L40.3 114.8 L7.5 103.8 L0 77.8 L20.3 56.5 L37.3 46.3 L49.8 34.8 L56.8 32.3 L58.8 28.8 L63.8 27.8 Z"/><path d="M158.3 34.8 L157 110 L153 129.5 L145.3 143.8 L132.8 156 L124 159.8 L106.5 159.8 L97.8 153.5 L90.5 141.5 L94.3 128.5 L94.3 117.5 L89.8 105.8 L93.8 61.8 L96.5 59.5 L98.5 52.8 L116.5 46.3 L113.5 70 L111.5 116 L116.3 126.8 L123.8 128 L129.5 122.8 L134.3 108.3 L136.8 48 L139.3 47.5 L144 39.5 Z"/><path d="M201.5 29.5 L214.5 31 L225 39.5 L230 53 L228.8 70.8 L225 81.8 L217.3 93.8 L203 107.8 L188 117.8 L186.8 149.8 L180 150.3 L169.8 157 L163 156.3 L168.3 69.5 L166 65.5 L167 41 L186.3 33.3 Z M197.5 54.8 L189.5 58 L187.8 60.5 L187 87.3 L189.3 90.3 L199.5 83.5 L208.3 68.3 L208.3 62.5 L205.5 57.3 Z"/><path d="M268.8 23.3 L274.5 28.5 L294.5 132.5 L285.3 134.5 L282 136.8 L280.3 141.3 L275.3 140 L272 141.5 L267.8 116.3 L260 115.8 L243.3 121.3 L237 145 L228.8 143.3 L222.5 148.3 L221.8 144.8 L214.3 144.5 L214.3 143 L226.5 96 L236.8 70.3 L238.3 57 L244.8 34.8 L251 27.8 L259.5 25.5 L264.5 26.3 Z M257.5 61.8 L255 64.3 L247.8 93.8 L250.8 97.5 L261.3 95.3 L264 92.8 L260.5 64.5 Z"/><path d="M359 3.3 L378.3 17.8 L370 37 L358.5 46.5 L350.5 41.3 L341.3 44.8 L334 51 L332.8 57 L336.5 62 L359.3 71 L369.3 79 L374.5 88.8 L374.5 102.3 L369.3 113.3 L359 125.5 L340.8 139.8 L319.3 150.5 L318.8 147.8 L314.8 147 L303 137.3 L304.8 131.5 L301.8 126.3 L315.8 106.8 L324 113 L330.5 112.5 L343.5 103.5 L346.3 96.5 L338 88.5 L315.3 79.5 L309.3 75.3 L303 58.5 L304 47.5 L320.3 28.8 L329 24.5 L330.8 20.8 Z"/><path d="M459.8 11 L460.8 14.3 L444.8 126.5 L436.5 128 L433.5 131.8 L425.8 132.8 L407.5 86.5 L405.3 85.3 L402.5 89.3 L398.5 132 L392.8 133 L387.5 137.5 L384.3 134.8 L376.3 136.8 L378.3 114.3 L383 98.5 L380.8 79.3 L385.3 39 L389 36.5 L390 32.5 L396 26.3 L405.3 22.3 L407.5 23.3 L423 67.3 L427.8 74.8 L430.3 72.3 L432 61.5 L436.8 18.5 Z"/><path d="M513.5 8 L526.5 82 L530.5 118.3 L508.8 128.3 L506 104.3 L501.5 101.5 L483.8 106 L480 108.8 L474 129.8 L466.5 128.3 L462.5 129.8 L455.5 126.3 L451.8 126.5 L455 117.3 L454.5 110.8 L487 17.5 L492.3 14.3 Z M497.5 47.8 L495 50 L486.8 79.3 L489 83 L499.8 81.3 L502.8 78.3 L500.5 50.3 Z"/><path d="M565.8 6 L561 43.3 L563.3 48.3 L567 45.8 L582 24.5 L589 18.5 L595.3 6 L613.5 22 L577 67.3 L604.3 115.3 L591 127.8 L586.3 127.3 L583.3 131.5 L565.5 95.8 L561.5 88.8 L558.5 88 L556 90.5 L552.5 129.3 L543.5 131 L537.3 130 L531.8 132.3 L531 127.5 L536.8 124.3 L538.5 121 L534.5 87 L542.3 12.8 Z"/><path d="M680 0 L681 1.8 L675 28 L663.8 28.3 L639.8 33.3 L636 51.3 L637 54.3 L665 53.3 L660 67.5 L661 74.3 L634 78.8 L631.3 90.8 L631 99.5 L633.5 102.3 L673.8 100.8 L667 122 L667 128 L607 129 L604.8 124.5 L612.3 116 L606.5 99.8 L615.5 39 L613.8 32.8 L622 22.5 L621.3 19 L614.8 11.8 L617.5 9.3 L630.3 9.8 L633.8 7.3 Z M662 121 L659.8 123.5 L662.8 125.8 L664.5 123 Z"/></clipPath>
</defs>

<g fill="#0B0410" stroke="#0B0410" stroke-width="14" stroke-linejoin="round" transform="translate(3 10)"><path d="M65.8 24.3 L71.3 24.8 L87 36.8 L83.5 44.3 L84.5 48 L77 64.5 L67.5 70.3 L63 67.5 L62 64.5 L57.3 64.3 L44 72.3 L38 79 L37.3 82.5 L40.3 86.5 L69 97 L76.8 101.8 L84.8 113.5 L86.5 127.3 L83.3 137.8 L71.3 154.3 L52.8 172.3 L28.3 188.3 L24.5 183.8 L20 185.3 L1.5 170.3 L22 139 L30 146 L35 145.8 L51 133.8 L54.3 128 L54.3 123.8 L51.8 120.3 L40.3 114.8 L7.5 103.8 L0 77.8 L20.3 56.5 L37.3 46.3 L49.8 34.8 L56.8 32.3 L58.8 28.8 L63.8 27.8 Z"/><path d="M158.3 34.8 L157 110 L153 129.5 L145.3 143.8 L132.8 156 L124 159.8 L106.5 159.8 L97.8 153.5 L90.5 141.5 L94.3 128.5 L94.3 117.5 L89.8 105.8 L93.8 61.8 L96.5 59.5 L98.5 52.8 L116.5 46.3 L113.5 70 L111.5 116 L116.3 126.8 L123.8 128 L129.5 122.8 L134.3 108.3 L136.8 48 L139.3 47.5 L144 39.5 Z"/><path d="M201.5 29.5 L214.5 31 L225 39.5 L230 53 L228.8 70.8 L225 81.8 L217.3 93.8 L203 107.8 L188 117.8 L186.8 149.8 L180 150.3 L169.8 157 L163 156.3 L168.3 69.5 L166 65.5 L167 41 L186.3 33.3 Z M197.5 54.8 L189.5 58 L187.8 60.5 L187 87.3 L189.3 90.3 L199.5 83.5 L208.3 68.3 L208.3 62.5 L205.5 57.3 Z"/><path d="M268.8 23.3 L274.5 28.5 L294.5 132.5 L285.3 134.5 L282 136.8 L280.3 141.3 L275.3 140 L272 141.5 L267.8 116.3 L260 115.8 L243.3 121.3 L237 145 L228.8 143.3 L222.5 148.3 L221.8 144.8 L214.3 144.5 L214.3 143 L226.5 96 L236.8 70.3 L238.3 57 L244.8 34.8 L251 27.8 L259.5 25.5 L264.5 26.3 Z M257.5 61.8 L255 64.3 L247.8 93.8 L250.8 97.5 L261.3 95.3 L264 92.8 L260.5 64.5 Z"/><path d="M359 3.3 L378.3 17.8 L370 37 L358.5 46.5 L350.5 41.3 L341.3 44.8 L334 51 L332.8 57 L336.5 62 L359.3 71 L369.3 79 L374.5 88.8 L374.5 102.3 L369.3 113.3 L359 125.5 L340.8 139.8 L319.3 150.5 L318.8 147.8 L314.8 147 L303 137.3 L304.8 131.5 L301.8 126.3 L315.8 106.8 L324 113 L330.5 112.5 L343.5 103.5 L346.3 96.5 L338 88.5 L315.3 79.5 L309.3 75.3 L303 58.5 L304 47.5 L320.3 28.8 L329 24.5 L330.8 20.8 Z"/><path d="M459.8 11 L460.8 14.3 L444.8 126.5 L436.5 128 L433.5 131.8 L425.8 132.8 L407.5 86.5 L405.3 85.3 L402.5 89.3 L398.5 132 L392.8 133 L387.5 137.5 L384.3 134.8 L376.3 136.8 L378.3 114.3 L383 98.5 L380.8 79.3 L385.3 39 L389 36.5 L390 32.5 L396 26.3 L405.3 22.3 L407.5 23.3 L423 67.3 L427.8 74.8 L430.3 72.3 L432 61.5 L436.8 18.5 Z"/><path d="M513.5 8 L526.5 82 L530.5 118.3 L508.8 128.3 L506 104.3 L501.5 101.5 L483.8 106 L480 108.8 L474 129.8 L466.5 128.3 L462.5 129.8 L455.5 126.3 L451.8 126.5 L455 117.3 L454.5 110.8 L487 17.5 L492.3 14.3 Z M497.5 47.8 L495 50 L486.8 79.3 L489 83 L499.8 81.3 L502.8 78.3 L500.5 50.3 Z"/><path d="M565.8 6 L561 43.3 L563.3 48.3 L567 45.8 L582 24.5 L589 18.5 L595.3 6 L613.5 22 L577 67.3 L604.3 115.3 L591 127.8 L586.3 127.3 L583.3 131.5 L565.5 95.8 L561.5 88.8 L558.5 88 L556 90.5 L552.5 129.3 L543.5 131 L537.3 130 L531.8 132.3 L531 127.5 L536.8 124.3 L538.5 121 L534.5 87 L542.3 12.8 Z"/><path d="M680 0 L681 1.8 L675 28 L663.8 28.3 L639.8 33.3 L636 51.3 L637 54.3 L665 53.3 L660 67.5 L661 74.3 L634 78.8 L631.3 90.8 L631 99.5 L633.5 102.3 L673.8 100.8 L667 122 L667 128 L607 129 L604.8 124.5 L612.3 116 L606.5 99.8 L615.5 39 L613.8 32.8 L622 22.5 L621.3 19 L614.8 11.8 L617.5 9.3 L630.3 9.8 L633.8 7.3 Z M662 121 L659.8 123.5 L662.8 125.8 L664.5 123 Z"/></g>
<g fill="#0B0410" stroke="#0B0410" stroke-width="14" stroke-linejoin="round"><path d="M65.8 24.3 L71.3 24.8 L87 36.8 L83.5 44.3 L84.5 48 L77 64.5 L67.5 70.3 L63 67.5 L62 64.5 L57.3 64.3 L44 72.3 L38 79 L37.3 82.5 L40.3 86.5 L69 97 L76.8 101.8 L84.8 113.5 L86.5 127.3 L83.3 137.8 L71.3 154.3 L52.8 172.3 L28.3 188.3 L24.5 183.8 L20 185.3 L1.5 170.3 L22 139 L30 146 L35 145.8 L51 133.8 L54.3 128 L54.3 123.8 L51.8 120.3 L40.3 114.8 L7.5 103.8 L0 77.8 L20.3 56.5 L37.3 46.3 L49.8 34.8 L56.8 32.3 L58.8 28.8 L63.8 27.8 Z"/><path d="M158.3 34.8 L157 110 L153 129.5 L145.3 143.8 L132.8 156 L124 159.8 L106.5 159.8 L97.8 153.5 L90.5 141.5 L94.3 128.5 L94.3 117.5 L89.8 105.8 L93.8 61.8 L96.5 59.5 L98.5 52.8 L116.5 46.3 L113.5 70 L111.5 116 L116.3 126.8 L123.8 128 L129.5 122.8 L134.3 108.3 L136.8 48 L139.3 47.5 L144 39.5 Z"/><path d="M201.5 29.5 L214.5 31 L225 39.5 L230 53 L228.8 70.8 L225 81.8 L217.3 93.8 L203 107.8 L188 117.8 L186.8 149.8 L180 150.3 L169.8 157 L163 156.3 L168.3 69.5 L166 65.5 L167 41 L186.3 33.3 Z M197.5 54.8 L189.5 58 L187.8 60.5 L187 87.3 L189.3 90.3 L199.5 83.5 L208.3 68.3 L208.3 62.5 L205.5 57.3 Z"/><path d="M268.8 23.3 L274.5 28.5 L294.5 132.5 L285.3 134.5 L282 136.8 L280.3 141.3 L275.3 140 L272 141.5 L267.8 116.3 L260 115.8 L243.3 121.3 L237 145 L228.8 143.3 L222.5 148.3 L221.8 144.8 L214.3 144.5 L214.3 143 L226.5 96 L236.8 70.3 L238.3 57 L244.8 34.8 L251 27.8 L259.5 25.5 L264.5 26.3 Z M257.5 61.8 L255 64.3 L247.8 93.8 L250.8 97.5 L261.3 95.3 L264 92.8 L260.5 64.5 Z"/><path d="M359 3.3 L378.3 17.8 L370 37 L358.5 46.5 L350.5 41.3 L341.3 44.8 L334 51 L332.8 57 L336.5 62 L359.3 71 L369.3 79 L374.5 88.8 L374.5 102.3 L369.3 113.3 L359 125.5 L340.8 139.8 L319.3 150.5 L318.8 147.8 L314.8 147 L303 137.3 L304.8 131.5 L301.8 126.3 L315.8 106.8 L324 113 L330.5 112.5 L343.5 103.5 L346.3 96.5 L338 88.5 L315.3 79.5 L309.3 75.3 L303 58.5 L304 47.5 L320.3 28.8 L329 24.5 L330.8 20.8 Z"/><path d="M459.8 11 L460.8 14.3 L444.8 126.5 L436.5 128 L433.5 131.8 L425.8 132.8 L407.5 86.5 L405.3 85.3 L402.5 89.3 L398.5 132 L392.8 133 L387.5 137.5 L384.3 134.8 L376.3 136.8 L378.3 114.3 L383 98.5 L380.8 79.3 L385.3 39 L389 36.5 L390 32.5 L396 26.3 L405.3 22.3 L407.5 23.3 L423 67.3 L427.8 74.8 L430.3 72.3 L432 61.5 L436.8 18.5 Z"/><path d="M513.5 8 L526.5 82 L530.5 118.3 L508.8 128.3 L506 104.3 L501.5 101.5 L483.8 106 L480 108.8 L474 129.8 L466.5 128.3 L462.5 129.8 L455.5 126.3 L451.8 126.5 L455 117.3 L454.5 110.8 L487 17.5 L492.3 14.3 Z M497.5 47.8 L495 50 L486.8 79.3 L489 83 L499.8 81.3 L502.8 78.3 L500.5 50.3 Z"/><path d="M565.8 6 L561 43.3 L563.3 48.3 L567 45.8 L582 24.5 L589 18.5 L595.3 6 L613.5 22 L577 67.3 L604.3 115.3 L591 127.8 L586.3 127.3 L583.3 131.5 L565.5 95.8 L561.5 88.8 L558.5 88 L556 90.5 L552.5 129.3 L543.5 131 L537.3 130 L531.8 132.3 L531 127.5 L536.8 124.3 L538.5 121 L534.5 87 L542.3 12.8 Z"/><path d="M680 0 L681 1.8 L675 28 L663.8 28.3 L639.8 33.3 L636 51.3 L637 54.3 L665 53.3 L660 67.5 L661 74.3 L634 78.8 L631.3 90.8 L631 99.5 L633.5 102.3 L673.8 100.8 L667 122 L667 128 L607 129 L604.8 124.5 L612.3 116 L606.5 99.8 L615.5 39 L613.8 32.8 L622 22.5 L621.3 19 L614.8 11.8 L617.5 9.3 L630.3 9.8 L633.8 7.3 Z M662 121 L659.8 123.5 L662.8 125.8 L664.5 123 Z"/></g>
<g clip-path="url(#ss-ink)">
<rect x="-13" y="-13" width="709.8" height="224.1" fill="#FFF6A5"/>
<g transform="translate(0.6 1.5)"><path d="M65.8 24.3 L71.3 24.8 L87 36.8 L83.5 44.3 L84.5 48 L77 64.5 L67.5 70.3 L63 67.5 L62 64.5 L57.3 64.3 L44 72.3 L38 79 L37.3 82.5 L40.3 86.5 L69 97 L76.8 101.8 L84.8 113.5 L86.5 127.3 L83.3 137.8 L71.3 154.3 L52.8 172.3 L28.3 188.3 L24.5 183.8 L20 185.3 L1.5 170.3 L22 139 L30 146 L35 145.8 L51 133.8 L54.3 128 L54.3 123.8 L51.8 120.3 L40.3 114.8 L7.5 103.8 L0 77.8 L20.3 56.5 L37.3 46.3 L49.8 34.8 L56.8 32.3 L58.8 28.8 L63.8 27.8 Z" fill="url(#ss-letter)"/><path d="M158.3 34.8 L157 110 L153 129.5 L145.3 143.8 L132.8 156 L124 159.8 L106.5 159.8 L97.8 153.5 L90.5 141.5 L94.3 128.5 L94.3 117.5 L89.8 105.8 L93.8 61.8 L96.5 59.5 L98.5 52.8 L116.5 46.3 L113.5 70 L111.5 116 L116.3 126.8 L123.8 128 L129.5 122.8 L134.3 108.3 L136.8 48 L139.3 47.5 L144 39.5 Z" fill="url(#ss-letter)"/><path d="M201.5 29.5 L214.5 31 L225 39.5 L230 53 L228.8 70.8 L225 81.8 L217.3 93.8 L203 107.8 L188 117.8 L186.8 149.8 L180 150.3 L169.8 157 L163 156.3 L168.3 69.5 L166 65.5 L167 41 L186.3 33.3 Z M197.5 54.8 L189.5 58 L187.8 60.5 L187 87.3 L189.3 90.3 L199.5 83.5 L208.3 68.3 L208.3 62.5 L205.5 57.3 Z" fill="url(#ss-letter)"/><path d="M268.8 23.3 L274.5 28.5 L294.5 132.5 L285.3 134.5 L282 136.8 L280.3 141.3 L275.3 140 L272 141.5 L267.8 116.3 L260 115.8 L243.3 121.3 L237 145 L228.8 143.3 L222.5 148.3 L221.8 144.8 L214.3 144.5 L214.3 143 L226.5 96 L236.8 70.3 L238.3 57 L244.8 34.8 L251 27.8 L259.5 25.5 L264.5 26.3 Z M257.5 61.8 L255 64.3 L247.8 93.8 L250.8 97.5 L261.3 95.3 L264 92.8 L260.5 64.5 Z" fill="url(#ss-letter)"/><path d="M359 3.3 L378.3 17.8 L370 37 L358.5 46.5 L350.5 41.3 L341.3 44.8 L334 51 L332.8 57 L336.5 62 L359.3 71 L369.3 79 L374.5 88.8 L374.5 102.3 L369.3 113.3 L359 125.5 L340.8 139.8 L319.3 150.5 L318.8 147.8 L314.8 147 L303 137.3 L304.8 131.5 L301.8 126.3 L315.8 106.8 L324 113 L330.5 112.5 L343.5 103.5 L346.3 96.5 L338 88.5 L315.3 79.5 L309.3 75.3 L303 58.5 L304 47.5 L320.3 28.8 L329 24.5 L330.8 20.8 Z" fill="url(#ss-letter)"/><path d="M459.8 11 L460.8 14.3 L444.8 126.5 L436.5 128 L433.5 131.8 L425.8 132.8 L407.5 86.5 L405.3 85.3 L402.5 89.3 L398.5 132 L392.8 133 L387.5 137.5 L384.3 134.8 L376.3 136.8 L378.3 114.3 L383 98.5 L380.8 79.3 L385.3 39 L389 36.5 L390 32.5 L396 26.3 L405.3 22.3 L407.5 23.3 L423 67.3 L427.8 74.8 L430.3 72.3 L432 61.5 L436.8 18.5 Z" fill="url(#ss-letter)"/><path d="M513.5 8 L526.5 82 L530.5 118.3 L508.8 128.3 L506 104.3 L501.5 101.5 L483.8 106 L480 108.8 L474 129.8 L466.5 128.3 L462.5 129.8 L455.5 126.3 L451.8 126.5 L455 117.3 L454.5 110.8 L487 17.5 L492.3 14.3 Z M497.5 47.8 L495 50 L486.8 79.3 L489 83 L499.8 81.3 L502.8 78.3 L500.5 50.3 Z" fill="url(#ss-letter)"/><path d="M565.8 6 L561 43.3 L563.3 48.3 L567 45.8 L582 24.5 L589 18.5 L595.3 6 L613.5 22 L577 67.3 L604.3 115.3 L591 127.8 L586.3 127.3 L583.3 131.5 L565.5 95.8 L561.5 88.8 L558.5 88 L556 90.5 L552.5 129.3 L543.5 131 L537.3 130 L531.8 132.3 L531 127.5 L536.8 124.3 L538.5 121 L534.5 87 L542.3 12.8 Z" fill="url(#ss-letter)"/><path d="M680 0 L681 1.8 L675 28 L663.8 28.3 L639.8 33.3 L636 51.3 L637 54.3 L665 53.3 L660 67.5 L661 74.3 L634 78.8 L631.3 90.8 L631 99.5 L633.5 102.3 L673.8 100.8 L667 122 L667 128 L607 129 L604.8 124.5 L612.3 116 L606.5 99.8 L615.5 39 L613.8 32.8 L622 22.5 L621.3 19 L614.8 11.8 L617.5 9.3 L630.3 9.8 L633.8 7.3 Z M662 121 L659.8 123.5 L662.8 125.8 L664.5 123 Z" fill="url(#ss-letter)"/></g>
</g>
</svg>